<svg width="354" height="354" viewBox="0 0 354 354" fill="none" xmlns="http://www.w3.org/2000/svg">
<g clip-path="url(#clip0_376_158)">
<path d="M14.2866 246.157C41.3646 309.049 104.016 353.089 176.994 353.089C197.299 353.089 216.803 349.665 234.967 343.389L176.994 176.583L14.2866 246.157Z" fill="#DEC6A0"/>
<path d="M176.994 0.0892334C79.2357 0.0892334 0 79.113 0 176.595C0 201.294 5.09731 224.811 14.2868 246.157L176.994 176.583V0.0892334Z" fill="#E4E0D5"/>
<path d="M234.967 343.401C279.132 328.14 315.339 295.948 335.8 254.593L176.982 176.583L234.955 343.389L234.967 343.401Z" fill="#BA885E"/>
<path d="M177.006 0.0892334V176.583L335.824 254.593C347.467 231.075 354.012 204.599 354.012 176.595C354 79.113 274.752 0.0892334 177.006 0.0892334Z" fill="#321310"/>
<path d="M234.641 132.727H238.304V138.317H234.641V132.727ZM245.822 119.645H249.485V138.951H245.822V119.645ZM231.116 141.787H250.036V144.707H231.116V141.787ZM231.116 137.133H234.779V142.559H231.116V137.133ZM228.362 133.828L227.921 130.909C232.576 130.909 238.8 130.854 244.142 130.166L244.363 132.782C238.937 133.691 232.961 133.828 228.362 133.828ZM241.003 134.462H246.621V136.968H241.003V134.462ZM236.128 120.527C239.846 120.527 242.462 122.372 242.462 125.071C242.462 127.797 239.846 129.615 236.128 129.615C232.383 129.615 229.767 127.797 229.767 125.071C229.767 122.372 232.383 120.527 236.128 120.527ZM236.128 123.198C234.421 123.198 233.237 123.831 233.237 125.071C233.237 126.31 234.421 126.943 236.128 126.943C237.808 126.943 238.992 126.31 238.992 125.071C238.992 123.831 237.808 123.198 236.128 123.198ZM269.642 119.618H273.333V145.12H269.642V119.618ZM272.369 129.367H276.858V132.369H272.369V129.367ZM262.95 122.262H266.53C266.53 129.918 263.611 136.472 255.129 140.741L253.091 137.959C259.783 134.489 262.95 129.808 262.95 122.895V122.262ZM254.495 122.262H264.823V125.208H254.495V122.262Z" fill="white"/>
<path d="M76.3083 120.389H79.5305V121.573C79.5305 126.475 75.6749 130.634 68.9826 131.625L67.5506 128.678C73.4166 127.907 76.3083 124.575 76.3083 121.573V120.389ZM76.9968 120.389H80.1914V121.573C80.1914 124.547 83.1107 127.907 88.9491 128.678L87.5446 131.625C80.8524 130.634 76.9968 126.475 76.9968 121.573V120.389ZM76.3358 135.811H79.9711V145.147H76.3358V135.811ZM66.7244 133.498H89.7753V136.472H66.7244V133.498ZM95.832 135.811H113.237V145.147H109.547V138.703H95.832V135.811ZM109.547 119.645H113.237V134.6H109.547V119.645ZM99.3571 121.022C103.295 121.022 106.27 123.639 106.27 127.274C106.27 130.909 103.295 133.498 99.3571 133.498C95.3913 133.498 92.417 130.909 92.417 127.274C92.417 123.639 95.3913 121.022 99.3571 121.022ZM99.3571 124.134C97.4293 124.134 95.9972 125.263 95.9972 127.274C95.9972 129.284 97.4293 130.441 99.3571 130.441C101.285 130.441 102.689 129.284 102.689 127.274C102.689 125.263 101.285 124.134 99.3571 124.134Z" fill="#321310"/>
<path d="M111.266 266.361H114.956V284.676H111.266V266.361ZM97.9641 288.476H115.59V291.395H97.9641V288.476ZM97.9641 282.83H101.627V289.66H97.9641V282.83ZM101.076 267.959C104.987 267.959 107.989 270.658 107.989 274.431C107.989 278.176 104.987 280.903 101.076 280.903C97.1655 280.903 94.1361 278.176 94.1361 274.431C94.1361 270.658 97.1655 267.959 101.076 267.959ZM101.076 271.126C99.1759 271.126 97.7163 272.338 97.7163 274.431C97.7163 276.496 99.1759 277.708 101.076 277.708C102.949 277.708 104.409 276.496 104.409 274.431C104.409 272.338 102.949 271.126 101.076 271.126ZM136.766 266.334H140.429V284.978H136.766V266.334ZM132.359 273.742H137.289V276.716H132.359V273.742ZM128.724 268.234H132.58C132.58 275.119 128.311 280.159 120.903 282.5L119.388 279.581C125.254 277.735 128.724 274.21 128.724 269.887V268.234ZM120.71 268.234H131.065V271.181H120.71V268.234ZM123.712 288.476H141.062V291.395H123.712V288.476ZM123.712 283.133H127.402V290.156H123.712V283.133ZM161.908 266.306H165.598V291.891H161.908V266.306ZM145.687 268.344H149.322V274.541H154.582V268.344H158.217V285.942H145.687V268.344ZM149.322 277.377V282.996H154.582V277.377H149.322Z" fill="#321310"/>
<path d="M246.569 249.058H248.976V265.689H246.569V249.058ZM241.666 250.782H244.037C244.037 255.865 242.313 260.032 236.404 262.887L235.165 260.984C239.942 258.685 241.666 255.667 241.666 251.213V250.782ZM236.045 250.782H242.798V252.668H236.045V250.782ZM252.279 259.996H253.68C256.482 259.996 258.619 259.96 261.098 259.565L261.313 261.469C258.799 261.864 256.536 261.935 253.68 261.935H252.279V259.996ZM252.279 250.441H260.092V252.381H254.686V260.624H252.279V250.441ZM254.111 255.057H259.858V256.925H254.111V255.057ZM262.265 249.058H264.672V265.689H262.265V249.058ZM264.133 255.362H267.078V257.338H264.133V255.362Z" fill="#321310"/>
<path d="M246.516 274.765H248.922V291.45H246.516V274.765ZM235.937 276.094H238.308V280.135H241.738V276.094H244.109V287.57H235.937V276.094ZM238.308 281.985V285.649H241.738V281.985H238.308ZM255.009 280.351H257.398V283.404H255.009V280.351ZM260.864 280.351H263.235V283.404H260.864V280.351ZM251.633 282.667H266.665V284.553H251.633V282.667ZM259.122 285.397C262.714 285.397 264.887 286.475 264.887 288.397C264.887 290.336 262.714 291.414 259.122 291.414C255.512 291.414 253.339 290.336 253.339 288.397C253.339 286.475 255.512 285.397 259.122 285.397ZM259.122 287.193C256.895 287.193 255.764 287.57 255.764 288.397C255.764 289.241 256.895 289.618 259.122 289.618C261.349 289.618 262.481 289.241 262.481 288.397C262.481 287.57 261.349 287.193 259.122 287.193ZM259.158 275.016C262.822 275.016 265.175 276.238 265.175 278.231C265.175 280.207 262.822 281.392 259.158 281.392C255.476 281.392 253.141 280.207 253.141 278.231C253.141 276.238 255.476 275.016 259.158 275.016ZM259.158 276.848C256.877 276.848 255.602 277.297 255.602 278.231C255.602 279.147 256.877 279.596 259.158 279.596C261.439 279.596 262.714 279.147 262.714 278.231C262.714 277.297 261.439 276.848 259.158 276.848Z" fill="#321310"/>
</g>
<defs>
<clipPath id="clip0_376_158">
<rect width="354" height="353" fill="white" transform="translate(0 0.0892334)"/>
</clipPath>
</defs>
</svg>
