<svg width="209" height="60" viewBox="0 0 209 60" fill="none" xmlns="http://www.w3.org/2000/svg">
<path d="M59.2901 31.1902C60.0701 44.7002 47.2101 60.2102 29.4301 59.7302C11.7201 59.2402 -0.0398983 47.2002 0.000101723 30.1202C0.0401017 12.6202 12.5101 0.680176 30.1801 0.680176C46.5001 0.680176 60.3001 14.2302 59.2901 31.1902ZM39.8701 40.5902C37.9201 41.0702 36.7101 42.4202 36.3501 44.2702C36.2201 44.9402 37.0401 45.8002 37.4301 46.5802C36.6101 47.5402 35.7801 48.5002 34.5301 49.9602C39.9201 50.8302 44.5801 51.3002 47.9401 47.1002C50.0601 44.4502 51.9301 41.4602 53.2301 38.3402C56.7201 29.9902 53.8401 17.9002 45.8901 11.5502C35.7501 3.45018 26.6201 4.20018 17.7201 8.56018C10.2201 12.2302 2.6301 22.3702 5.3601 35.0802C6.5401 40.5902 9.2501 44.7402 13.0101 48.4702C13.9401 49.4002 15.4001 50.2702 16.6401 50.3202C19.3501 50.4202 22.1801 51.0502 24.7801 49.9202C23.7901 46.1802 22.8701 42.7302 21.8001 38.6702C27.4401 38.0002 32.6101 37.9302 37.7801 38.6302C38.5501 38.7302 39.1801 39.9102 39.8801 40.5802L39.8701 40.5902ZM39.0801 51.5102C35.8601 51.5102 32.6501 51.4602 29.4401 51.5202C26.1801 51.5902 22.8901 51.2302 19.6901 52.2302C26.2701 55.3202 32.8101 56.3202 39.0901 51.5002L39.0801 51.5102Z" fill="#482A25"/>
<path d="M38.26 27.7603C37.53 32.5803 32.83 33.8103 30.26 37.1803C28.64 35.8503 27.31 34.6703 25.9 33.6003C19.94 29.0703 20.27 21.7503 26.63 17.9303C27.24 17.5603 27.88 17.2303 28.6 16.8203C26.49 15.1703 22.97 17.5403 22.09 14.4103C21.55 12.4703 20.53 9.76033 23.7 7.84033V13.6803C25.85 16.9303 29.27 13.3003 31.47 16.2603C33.52 19.0103 37.56 20.1703 38.06 24.6603C34.99 24.9803 31.92 25.8203 29.63 21.6503C28.7 25.1703 28.76 27.8103 29.39 30.7403C31.7367 28.1337 34.69 27.1403 38.25 27.7603H38.26Z" fill="#482A25"/>
<path d="M39.72 44.2704C39.72 42.9904 39.7 41.7104 39.7 40.4204C41.72 41.6904 41.4 42.9704 39.72 44.2704Z" fill="#482A25"/>
<path d="M37.27 46.7201C37.73 46.2601 38.18 45.8001 38.64 45.3301C38.18 45.7901 37.73 46.2501 37.27 46.7201Z" fill="#482A25"/>
<path d="M79.65 23.9904H75.12V20.6904H88.16V23.9904H83.61V38.2504H79.64V23.9904H79.65Z" fill="#482A25"/>
<path d="M91.83 20.6802H95.76V27.5702H101.23V20.6802H105.16V38.2502H101.23V30.9802H95.76V38.2502H91.83V20.6802Z" fill="#482A25"/>
<path d="M109.81 20.6802H120.99V24.1002H113.72V27.6702H120.81V31.0502H113.72V34.8202H121.19V38.2502H109.81V20.6802Z" fill="#482A25"/>
<path d="M136.43 37.9204C135.39 37.4904 134.54 36.8104 133.9 35.8804C133.25 34.9504 132.93 33.7904 132.93 32.3804V26.5504C132.93 25.1504 133.25 23.9804 133.9 23.0504C134.55 22.1204 135.39 21.4404 136.43 21.0104C137.47 20.5804 138.61 20.3604 139.83 20.3604C141.69 20.3604 143.17 20.6704 144.28 21.2804L143.88 24.5404C142.86 24.0604 141.65 23.8204 140.23 23.8204C139.27 23.8204 138.46 24.0804 137.82 24.5904C137.17 25.1004 136.85 25.8104 136.85 26.7204V32.1904C136.85 33.1004 137.17 33.8104 137.82 34.3204C138.47 34.8304 139.27 35.0904 140.23 35.0904C140.9 35.0904 141.53 35.0203 142.13 34.8703C142.73 34.7204 143.39 34.4804 144.11 34.1504L144.51 37.4403C144.04 37.7903 143.37 38.0604 142.5 38.2604C141.62 38.4604 140.73 38.5604 139.83 38.5604C138.6 38.5604 137.47 38.3404 136.43 37.9104V37.9204Z" fill="#482A25"/>
<path d="M153.12 20.6802H157.29L162.92 38.2502H158.91L157.89 34.8002H152.52L151.52 38.2502H147.49L153.12 20.6802ZM156.91 31.5002L155.19 25.6902L153.49 31.5002H156.91Z" fill="#482A25"/>
<path d="M166.48 20.6802H177.7V24.1002H170.41V28.0102H177.18V31.4302H170.41V38.2402H166.48V20.6802Z" fill="#482A25"/>
<path d="M181.96 20.6802H193.18V24.1002H185.89V28.0102H192.66V31.4302H185.89V38.2402H181.96V20.6802Z" fill="#482A25"/>
<path d="M197.44 20.6802H208.62V24.1002H201.35V27.6702H208.44V31.0502H201.35V34.8202H208.82V38.2502H197.44V20.6802Z" fill="#482A25"/>
<path d="M90.02 43.7006H88.59V42.6606H92.7V43.7006H91.27V48.2006H90.02V43.7006Z" fill="#482A25"/>
<path d="M93.54 42.6606H94.78V44.8306H96.51V42.6606H97.75V48.2006H96.51V45.9106H94.78V48.2006H93.54V42.6606Z" fill="#482A25"/>
<path d="M98.8799 42.6606H102.41V43.7406H100.12V44.8606H102.36V45.9306H100.12V47.1206H102.48V48.2006H98.8899V42.6606H98.8799Z" fill="#482A25"/>
<path d="M106.27 48.1603C105.96 48.0603 105.67 47.9203 105.4 47.7503L105.59 46.6703C105.8 46.8203 106.05 46.9403 106.34 47.0503C106.63 47.1603 106.91 47.2103 107.18 47.2103C107.39 47.2103 107.57 47.1603 107.7 47.0703C107.83 46.9803 107.9 46.8403 107.9 46.6603C107.9 46.5003 107.83 46.3603 107.7 46.2503C107.57 46.1403 107.35 46.0303 107.05 45.9203L106.77 45.8103C106.31 45.6403 105.97 45.4203 105.75 45.1503C105.53 44.8803 105.42 44.5403 105.42 44.1303C105.42 43.8103 105.5 43.5303 105.65 43.3003C105.8 43.0703 106.02 42.8903 106.29 42.7603C106.57 42.6303 106.89 42.5703 107.26 42.5703C107.54 42.5703 107.81 42.6103 108.08 42.6803C108.35 42.7503 108.59 42.8503 108.82 42.9803L108.66 44.0003C108.23 43.7703 107.8 43.6603 107.35 43.6603C107.15 43.6603 106.98 43.7003 106.85 43.7903C106.72 43.8703 106.66 44.0003 106.66 44.1803C106.66 44.2903 106.69 44.3903 106.75 44.4603C106.81 44.5403 106.9 44.6003 107.01 44.6603C107.12 44.7203 107.28 44.7803 107.48 44.8603L107.76 44.9703C108.22 45.1403 108.56 45.3603 108.79 45.6203C109.02 45.8903 109.14 46.2403 109.14 46.6803C109.14 47.0103 109.06 47.3003 108.89 47.5503C108.73 47.8003 108.5 47.9903 108.21 48.1203C107.92 48.2503 107.59 48.3203 107.23 48.3203C106.89 48.3203 106.57 48.2703 106.25 48.1703L106.27 48.1603Z" fill="#482A25"/>
<path d="M111.19 43.7006H109.76V42.6606H113.87V43.7006H112.44V48.2006H111.19V43.7006Z" fill="#482A25"/>
<path d="M115.58 48.1205C115.26 47.9905 114.99 47.7905 114.78 47.5005C114.57 47.2105 114.46 46.8405 114.46 46.3805V44.4905C114.46 44.0305 114.56 43.6605 114.78 43.3705C114.99 43.0805 115.26 42.8705 115.58 42.7505C115.9 42.6205 116.23 42.5605 116.58 42.5605C116.93 42.5605 117.25 42.6205 117.58 42.7505C117.9 42.8805 118.17 43.0805 118.38 43.3705C118.59 43.6605 118.7 44.0305 118.7 44.4905V46.3805C118.7 46.8405 118.59 47.2105 118.38 47.5005C118.17 47.7905 117.9 48.0005 117.58 48.1205C117.26 48.2505 116.93 48.3105 116.58 48.3105C116.23 48.3105 115.91 48.2505 115.58 48.1205ZM117.21 47.0405C117.38 46.9005 117.47 46.6805 117.47 46.3905V44.4905C117.47 44.2005 117.38 43.9805 117.21 43.8405C117.04 43.6905 116.83 43.6205 116.58 43.6205C116.33 43.6205 116.12 43.6905 115.94 43.8405C115.77 43.9905 115.68 44.2005 115.68 44.4905V46.3905C115.68 46.6805 115.76 46.9005 115.94 47.0405C116.11 47.1905 116.32 47.2605 116.58 47.2605C116.84 47.2605 117.04 47.1905 117.21 47.0405Z" fill="#482A25"/>
<path d="M120.69 43.7006H119.26V42.6606H123.37V43.7006H121.94V48.2006H120.69V43.7006Z" fill="#482A25"/>
<path d="M125.64 46.3606L123.86 42.6606H125.19L126.26 45.1206L127.3 42.6606H128.64L126.86 46.4106V48.2006H125.63V46.3606H125.64Z" fill="#482A25"/>
<path d="M132.59 48.1205C132.27 47.9905 132 47.7905 131.79 47.5005C131.58 47.2105 131.47 46.8405 131.47 46.3805V44.4905C131.47 44.0305 131.57 43.6605 131.79 43.3705C132 43.0805 132.27 42.8705 132.59 42.7505C132.91 42.6205 133.24 42.5605 133.59 42.5605C133.94 42.5605 134.26 42.6205 134.59 42.7505C134.91 42.8805 135.18 43.0805 135.39 43.3705C135.6 43.6605 135.71 44.0305 135.71 44.4905V46.3805C135.71 46.8405 135.6 47.2105 135.39 47.5005C135.18 47.7905 134.91 48.0005 134.59 48.1205C134.27 48.2505 133.94 48.3105 133.59 48.3105C133.24 48.3105 132.92 48.2505 132.59 48.1205ZM134.22 47.0405C134.39 46.9005 134.48 46.6805 134.48 46.3905V44.4905C134.48 44.2005 134.39 43.9805 134.22 43.8405C134.05 43.6905 133.84 43.6205 133.59 43.6205C133.34 43.6205 133.13 43.6905 132.95 43.8405C132.78 43.9905 132.69 44.2005 132.69 44.4905V46.3905C132.69 46.6805 132.77 46.9005 132.95 47.0405C133.12 47.1905 133.33 47.2605 133.59 47.2605C133.85 47.2605 134.05 47.1905 134.22 47.0405Z" fill="#482A25"/>
<path d="M136.73 42.6606H140.27V43.7406H137.97V44.9706H140.11V46.0506H137.97V48.2006H136.73V42.6606Z" fill="#482A25"/>
<path d="M143.44 42.6606H145.44C146.03 42.6606 146.48 42.7906 146.81 43.0606C147.14 43.3306 147.3 43.7206 147.3 44.2306V44.3106C147.3 44.8006 147.1 45.1506 146.7 45.3806C147.23 45.5906 147.49 45.9906 147.49 46.6006V46.6406C147.49 47.2006 147.33 47.6006 147 47.8406C146.68 48.0806 146.21 48.2106 145.62 48.2106H143.45V42.6706L143.44 42.6606ZM145.93 44.7806C146.03 44.6806 146.08 44.5406 146.08 44.3706V44.2806C146.08 44.1006 146.03 43.9706 145.93 43.8706C145.83 43.7706 145.68 43.7206 145.48 43.7206H144.67V44.9406H145.48C145.68 44.9406 145.83 44.8906 145.93 44.7906V44.7806ZM146.11 47.0006C146.21 46.9006 146.26 46.7606 146.26 46.5806V46.5006C146.26 46.3106 146.21 46.1706 146.11 46.0806C146.01 45.9806 145.86 45.9306 145.66 45.9306H144.66V47.1506H145.66C145.85 47.1506 146 47.1006 146.11 47.0006Z" fill="#482A25"/>
<path d="M148.4 42.6606H151.93V43.7406H149.64V44.8606H151.88V45.9306H149.64V47.1206H152V48.2006H148.41V42.6606H148.4Z" fill="#482A25"/>
<path d="M153.64 48.1603C153.33 48.0603 153.04 47.9203 152.77 47.7503L152.96 46.6703C153.17 46.8203 153.42 46.9403 153.71 47.0503C154 47.1603 154.28 47.2103 154.55 47.2103C154.76 47.2103 154.94 47.1603 155.07 47.0703C155.2 46.9803 155.27 46.8403 155.27 46.6603C155.27 46.5003 155.2 46.3603 155.07 46.2503C154.94 46.1403 154.72 46.0303 154.42 45.9203L154.14 45.8103C153.68 45.6403 153.34 45.4203 153.12 45.1503C152.9 44.8803 152.79 44.5403 152.79 44.1303C152.79 43.8103 152.87 43.5303 153.02 43.3003C153.17 43.0703 153.39 42.8903 153.66 42.7603C153.94 42.6303 154.26 42.5703 154.63 42.5703C154.91 42.5703 155.18 42.6103 155.45 42.6803C155.72 42.7503 155.96 42.8503 156.19 42.9803L156.03 44.0003C155.6 43.7703 155.17 43.6603 154.72 43.6603C154.52 43.6603 154.35 43.7003 154.22 43.7903C154.09 43.8703 154.03 44.0003 154.03 44.1803C154.03 44.2903 154.06 44.3903 154.12 44.4603C154.18 44.5403 154.27 44.6003 154.38 44.6603C154.49 44.7203 154.65 44.7803 154.85 44.8603L155.13 44.9703C155.59 45.1403 155.93 45.3603 156.16 45.6203C156.39 45.8903 156.51 46.2403 156.51 46.6803C156.51 47.0103 156.43 47.3003 156.26 47.5503C156.1 47.8003 155.87 47.9903 155.58 48.1203C155.29 48.2503 154.96 48.3203 154.6 48.3203C154.26 48.3203 153.94 48.2703 153.62 48.1703L153.64 48.1603Z" fill="#482A25"/>
<path d="M158.56 43.7006H157.13V42.6606H161.24V43.7006H159.81V48.2006H158.56V43.7006Z" fill="#482A25"/>
<path d="M165.21 48.1003C164.88 47.9603 164.61 47.7503 164.41 47.4603C164.21 47.1703 164.1 46.8003 164.1 46.3603V44.5203C164.1 44.0803 164.2 43.7103 164.41 43.4203C164.61 43.1303 164.88 42.9103 165.21 42.7803C165.54 42.6503 165.9 42.5703 166.28 42.5703C166.87 42.5703 167.33 42.6703 167.68 42.8603L167.55 43.8903C167.23 43.7403 166.85 43.6603 166.4 43.6603C166.1 43.6603 165.84 43.7403 165.64 43.9003C165.44 44.0603 165.33 44.2903 165.33 44.5703V46.3003C165.33 46.5903 165.43 46.8103 165.64 46.9703C165.84 47.1303 166.1 47.2103 166.4 47.2103C166.61 47.2103 166.81 47.1903 167 47.1403C167.19 47.0903 167.4 47.0203 167.63 46.9103L167.76 47.9503C167.61 48.0603 167.4 48.1503 167.12 48.2103C166.84 48.2703 166.56 48.3003 166.28 48.3003C165.89 48.3003 165.53 48.2303 165.21 48.0903V48.1003Z" fill="#482A25"/>
<path d="M169.71 48.1205C169.39 47.9905 169.12 47.7905 168.91 47.5005C168.7 47.2105 168.59 46.8405 168.59 46.3805V44.4905C168.59 44.0305 168.69 43.6605 168.91 43.3705C169.12 43.0805 169.39 42.8705 169.71 42.7505C170.03 42.6205 170.36 42.5605 170.71 42.5605C171.06 42.5605 171.38 42.6205 171.71 42.7505C172.03 42.8805 172.3 43.0805 172.51 43.3705C172.72 43.6605 172.83 44.0305 172.83 44.4905V46.3805C172.83 46.8405 172.72 47.2105 172.51 47.5005C172.3 47.7905 172.03 48.0005 171.71 48.1205C171.39 48.2505 171.06 48.3105 170.71 48.3105C170.36 48.3105 170.04 48.2505 169.71 48.1205ZM171.34 47.0405C171.51 46.9005 171.6 46.6805 171.6 46.3905V44.4905C171.6 44.2005 171.51 43.9805 171.34 43.8405C171.17 43.6905 170.96 43.6205 170.71 43.6205C170.46 43.6205 170.25 43.6905 170.07 43.8405C169.9 43.9905 169.81 44.2005 169.81 44.4905V46.3905C169.81 46.6805 169.89 46.9005 170.07 47.0405C170.24 47.1905 170.45 47.2605 170.71 47.2605C170.97 47.2605 171.17 47.1905 171.34 47.0405Z" fill="#482A25"/>
<path d="M173.84 42.6606H177.38V43.7406H175.08V44.9706H177.22V46.0506H175.08V48.2006H173.84V42.6606Z" fill="#482A25"/>
<path d="M178.4 42.6606H181.94V43.7406H179.64V44.9706H181.78V46.0506H179.64V48.2006H178.4V42.6606Z" fill="#482A25"/>
<path d="M182.95 42.6606H186.48V43.7406H184.19V44.8606H186.43V45.9306H184.19V47.1206H186.55V48.2006H182.96V42.6606H182.95Z" fill="#482A25"/>
<path d="M187.56 42.6606H191.09V43.7406H188.8V44.8606H191.04V45.9306H188.8V47.1206H191.16V48.2006H187.57V42.6606H187.56Z" fill="#482A25"/>
</svg>
