<svg width="119" height="17" viewBox="0 0 119 17" fill="none" xmlns="http://www.w3.org/2000/svg">
<path d="M4.67007 3.75608H0.690063V0.856079H12.1501V3.75608H8.16006V16.2861H4.68006V3.75608H4.67007Z" fill="#333333"/>
<path d="M15.3701 0.846069H18.8201V6.89607H23.6201V0.846069H27.0701V16.2761H23.6201V9.88607H18.8201V16.2761H15.3701V0.846069Z" fill="#333333"/>
<path d="M31.17 0.846069H40.99V3.85607H34.6V6.98607H40.83V9.95607H34.6V13.2661H41.16V16.2761H31.17V0.846069Z" fill="#333333"/>
<path d="M54.5501 15.986C53.6301 15.606 52.8901 15.006 52.3201 14.196C51.7501 13.386 51.4701 12.356 51.4701 11.126V6.00605C51.4701 4.77605 51.7501 3.75605 52.3201 2.93605C52.8901 2.11605 53.6301 1.52605 54.5501 1.14605C55.4701 0.76605 56.4601 0.57605 57.5401 0.57605C59.1701 0.57605 60.4701 0.846049 61.4501 1.38605L61.1001 4.25605C60.2101 3.83605 59.1401 3.62605 57.9001 3.62605C57.0601 3.62605 56.3501 3.85605 55.7801 4.30605C55.2101 4.75605 54.9301 5.38605 54.9301 6.17605V10.976C54.9301 11.776 55.2101 12.3961 55.7801 12.8461C56.3501 13.2961 57.0601 13.5261 57.9001 13.5261C58.4901 13.5261 59.0401 13.4661 59.5701 13.3361C60.1001 13.2061 60.6801 12.996 61.3101 12.706L61.6601 15.5961C61.2501 15.8961 60.6601 16.146 59.8901 16.316C59.1201 16.496 58.3401 16.576 57.5401 16.576C56.4601 16.576 55.4601 16.3861 54.5501 16.0061V15.986Z" fill="#333333"/>
<path d="M69.21 0.846069H72.87L77.81 16.2761H74.29L73.39 13.2461H68.67L67.79 16.2761H64.25L69.19 0.846069H69.21ZM72.54 10.3461L71.03 5.24607L69.53 10.3461H72.54Z" fill="#333333"/>
<path d="M80.9401 0.846069H90.7901V3.85607H84.3901V7.28607H90.3401V10.2961H84.3901V16.2761H80.9401V0.846069Z" fill="#333333"/>
<path d="M94.54 0.846069H104.39V3.85607H97.99V7.28607H103.94V10.2961H97.99V16.2761H94.54V0.846069Z" fill="#333333"/>
<path d="M108.15 0.846069H117.97V3.85607H111.58V6.98607H117.81V9.95607H111.58V13.2661H118.14V16.2761H108.15V0.846069Z" fill="#333333"/>
</svg>
