<svg width="91" height="6" viewBox="0 0 91 6" fill="none" xmlns="http://www.w3.org/2000/svg">
<path d="M1.78003 1.07601H0.530029V0.156006H4.14003V1.07601H2.88004V5.02601H1.78003V1.07601Z" fill="#333333"/>
<path d="M4.87 0.156006H5.95999V2.06601H7.48V0.156006H8.56999V5.02601H7.48V3.00601H5.95999V5.02601H4.87V0.156006Z" fill="#333333"/>
<path d="M9.56006 0.156006H12.6601V1.10601H10.6401V2.09601H12.6101V3.03601H10.6401V4.07601H12.7101V5.02601H9.56006V0.156006Z" fill="#333333"/>
<path d="M16.05 4.98606C15.77 4.89606 15.52 4.77606 15.29 4.62606L15.46 3.67606C15.64 3.80606 15.86 3.91606 16.12 4.01606C16.38 4.10606 16.62 4.15606 16.86 4.15606C17.05 4.15606 17.2 4.11606 17.32 4.03606C17.44 3.95606 17.5 3.83606 17.5 3.67606C17.5 3.53606 17.44 3.41606 17.32 3.31606C17.2 3.21606 17.01 3.12606 16.75 3.02606L16.5 2.93606C16.09 2.78606 15.79 2.59606 15.6 2.35606C15.41 2.12606 15.31 1.82606 15.31 1.45606C15.31 1.17606 15.38 0.936063 15.51 0.726063C15.64 0.516063 15.83 0.366062 16.08 0.256062C16.32 0.146062 16.61 0.0860596 16.93 0.0860596C17.17 0.0860596 17.41 0.11606 17.65 0.17606C17.88 0.23606 18.1 0.32606 18.3 0.44606L18.16 1.34606C17.79 1.14606 17.4 1.04606 17.01 1.04606C16.83 1.04606 16.69 1.08606 16.57 1.15606C16.46 1.22606 16.4 1.34606 16.4 1.49606C16.4 1.59606 16.43 1.67606 16.48 1.74606C16.54 1.81606 16.61 1.86606 16.71 1.91606C16.81 1.96606 16.94 2.02606 17.12 2.09606L17.37 2.18606C17.77 2.33606 18.07 2.52606 18.28 2.75606C18.49 2.98606 18.59 3.29606 18.59 3.68606C18.59 3.97606 18.52 4.23606 18.37 4.45606C18.23 4.67606 18.03 4.83606 17.77 4.95606C17.51 5.07606 17.23 5.12606 16.91 5.12606C16.61 5.12606 16.33 5.08606 16.05 4.99606V4.98606Z" fill="#333333"/>
<path d="M20.38 1.07601H19.13V0.156006H22.74V1.07601H21.48V5.02601H20.38V1.07601Z" fill="#333333"/>
<path d="M24.23 4.94603C23.95 4.83603 23.71 4.65603 23.52 4.39603C23.33 4.13603 23.24 3.81603 23.24 3.41603V1.75603C23.24 1.35603 23.33 1.02603 23.52 0.776031C23.71 0.526031 23.94 0.336032 24.22 0.226032C24.5 0.116032 24.8 0.0560303 25.1 0.0560303C25.4 0.0560303 25.69 0.116032 25.97 0.226032C26.25 0.336032 26.49 0.516032 26.68 0.776031C26.87 1.02603 26.96 1.35603 26.96 1.75603V3.41603C26.96 3.81603 26.87 4.14603 26.68 4.39603C26.49 4.64603 26.26 4.83603 25.97 4.94603C25.69 5.05603 25.4 5.11603 25.1 5.11603C24.8 5.11603 24.51 5.05603 24.23 4.94603ZM25.66 3.99603C25.81 3.86603 25.89 3.67603 25.89 3.42603V1.75603C25.89 1.49603 25.81 1.30603 25.66 1.18603C25.51 1.05603 25.32 0.996029 25.1 0.996029C24.88 0.996029 24.69 1.05603 24.54 1.18603C24.39 1.31603 24.32 1.50603 24.32 1.75603V3.42603C24.32 3.68603 24.39 3.87603 24.54 3.99603C24.69 4.12603 24.88 4.18603 25.1 4.18603C25.32 4.18603 25.51 4.12603 25.66 3.99603Z" fill="#333333"/>
<path d="M28.72 1.07601H27.47V0.156006H31.08V1.07601H29.82V5.02601H28.72V1.07601Z" fill="#333333"/>
<path d="M33.07 3.40601L31.5 0.156006H32.67L33.61 2.31601L34.53 0.156006H35.71L34.14 3.45601V5.02601H33.06V3.40601H33.07Z" fill="#333333"/>
<path d="M39.1801 4.94603C38.9001 4.83603 38.6601 4.65603 38.4701 4.39603C38.2801 4.13603 38.1901 3.81603 38.1901 3.41603V1.75603C38.1901 1.35603 38.2801 1.02603 38.4701 0.776031C38.6601 0.526031 38.8901 0.336032 39.1701 0.226032C39.4501 0.116032 39.7501 0.0560303 40.0501 0.0560303C40.3501 0.0560303 40.6401 0.116032 40.9201 0.226032C41.2001 0.336032 41.4401 0.516032 41.6301 0.776031C41.8201 1.02603 41.9101 1.35603 41.9101 1.75603V3.41603C41.9101 3.81603 41.8201 4.14603 41.6301 4.39603C41.4401 4.64603 41.2101 4.83603 40.9201 4.94603C40.6401 5.05603 40.3501 5.11603 40.0501 5.11603C39.7501 5.11603 39.4601 5.05603 39.1801 4.94603ZM40.6101 3.99603C40.7601 3.86603 40.8401 3.67603 40.8401 3.42603V1.75603C40.8401 1.49603 40.7601 1.30603 40.6101 1.18603C40.4601 1.05603 40.2701 0.996029 40.0501 0.996029C39.8301 0.996029 39.6401 1.05603 39.4901 1.18603C39.3401 1.31603 39.2701 1.50603 39.2701 1.75603V3.42603C39.2701 3.68603 39.3401 3.87603 39.4901 3.99603C39.6401 4.12603 39.8301 4.18603 40.0501 4.18603C40.2701 4.18603 40.4601 4.12603 40.6101 3.99603Z" fill="#333333"/>
<path d="M42.8 0.156006H45.91V1.10601H43.89V2.18601H45.7701V3.13601H43.89V5.02601H42.8V0.156006Z" fill="#333333"/>
<path d="M48.7001 0.156006H50.4601C50.9701 0.156006 51.3701 0.276008 51.6601 0.506008C51.9501 0.736008 52.0901 1.08601 52.0901 1.52601V1.59601C52.0901 2.02601 51.9101 2.33601 51.5601 2.53601C52.0201 2.71601 52.2501 3.07601 52.2501 3.60601V3.64601C52.2501 4.13601 52.1101 4.48601 51.8201 4.70601C51.5401 4.91601 51.1301 5.02601 50.6001 5.02601H48.6901V0.156006H48.7001ZM50.8801 2.01601C50.9701 1.92601 51.0101 1.80601 51.0101 1.65601V1.57601C51.0101 1.41601 50.9701 1.29601 50.8801 1.21601C50.7901 1.13601 50.6601 1.08601 50.4801 1.08601H49.7601V2.15601H50.4801C50.6601 2.15601 50.7901 2.11601 50.8801 2.02601V2.01601ZM51.0401 3.96601C51.1301 3.87601 51.1801 3.75601 51.1801 3.59601V3.52601C51.1801 3.36601 51.1401 3.23601 51.0401 3.15601C50.9501 3.06601 50.8201 3.02601 50.6501 3.02601H49.7701V4.09601H50.6501C50.8201 4.09601 50.9501 4.05601 51.0401 3.96601Z" fill="#333333"/>
<path d="M53.0601 0.156006H56.16V1.10601H54.1401V2.09601H56.1101V3.03601H54.1401V4.07601H56.2101V5.02601H53.0601V0.156006Z" fill="#333333"/>
<path d="M57.66 4.98606C57.38 4.89606 57.13 4.77606 56.9 4.62606L57.07 3.67606C57.25 3.80606 57.47 3.91606 57.73 4.01606C57.99 4.10606 58.23 4.15606 58.47 4.15606C58.66 4.15606 58.81 4.11606 58.93 4.03606C59.05 3.95606 59.11 3.83606 59.11 3.67606C59.11 3.53606 59.05 3.41606 58.93 3.31606C58.81 3.21606 58.62 3.12606 58.36 3.02606L58.11 2.93606C57.7 2.78606 57.4 2.59606 57.21 2.35606C57.02 2.12606 56.92 1.82606 56.92 1.45606C56.92 1.17606 56.99 0.936063 57.12 0.726063C57.25 0.516063 57.44 0.366062 57.69 0.256062C57.93 0.146062 58.22 0.0860596 58.54 0.0860596C58.78 0.0860596 59.02 0.11606 59.26 0.17606C59.49 0.23606 59.71 0.32606 59.91 0.44606L59.77 1.34606C59.4 1.14606 59.01 1.04606 58.62 1.04606C58.44 1.04606 58.3 1.08606 58.18 1.15606C58.07 1.22606 58.01 1.34606 58.01 1.49606C58.01 1.59606 58.04 1.67606 58.09 1.74606C58.15 1.81606 58.22 1.86606 58.32 1.91606C58.42 1.96606 58.55 2.02606 58.73 2.09606L58.98 2.18606C59.38 2.33606 59.68 2.52606 59.89 2.75606C60.1 2.98606 60.2 3.29606 60.2 3.68606C60.2 3.97606 60.13 4.23606 59.98 4.45606C59.84 4.67606 59.64 4.83606 59.38 4.95606C59.12 5.07606 58.84 5.12606 58.52 5.12606C58.22 5.12606 57.94 5.08606 57.66 4.99606V4.98606Z" fill="#333333"/>
<path d="M61.99 1.07601H60.74V0.156006H64.35V1.07601H63.09V5.02601H61.99V1.07601Z" fill="#333333"/>
<path d="M67.83 4.93603C67.54 4.81603 67.31 4.62603 67.13 4.36603C66.95 4.10603 66.86 3.78603 66.86 3.39603V1.77603C66.86 1.38603 66.95 1.06603 67.13 0.80603C67.31 0.54603 67.54 0.356031 67.83 0.236031C68.12 0.116031 68.43 0.0560303 68.77 0.0560303C69.28 0.0560303 69.7 0.136032 70 0.316032L69.89 1.21603C69.61 1.08603 69.27 1.01603 68.88 1.01603C68.61 1.01603 68.39 1.08603 68.21 1.22603C68.03 1.36603 67.94 1.56603 67.94 1.81603V3.33603C67.94 3.58603 68.03 3.78603 68.21 3.92603C68.39 4.06603 68.61 4.13603 68.88 4.13603C69.07 4.13603 69.24 4.11603 69.41 4.07603C69.58 4.03603 69.76 3.96603 69.96 3.87603L70.07 4.78603C69.94 4.88603 69.75 4.95603 69.51 5.01603C69.27 5.07603 69.02 5.09603 68.77 5.09603C68.43 5.09603 68.12 5.03603 67.83 4.91603V4.93603Z" fill="#333333"/>
<path d="M71.78 4.94603C71.5 4.83603 71.26 4.65603 71.07 4.39603C70.88 4.13603 70.79 3.81603 70.79 3.41603V1.75603C70.79 1.35603 70.88 1.02603 71.07 0.776031C71.26 0.526031 71.49 0.336032 71.77 0.226032C72.05 0.116032 72.35 0.0560303 72.65 0.0560303C72.95 0.0560303 73.24 0.116032 73.52 0.226032C73.8 0.336032 74.04 0.516032 74.23 0.776031C74.42 1.02603 74.51 1.35603 74.51 1.75603V3.41603C74.51 3.81603 74.42 4.14603 74.23 4.39603C74.04 4.64603 73.81 4.83603 73.52 4.94603C73.24 5.05603 72.95 5.11603 72.65 5.11603C72.35 5.11603 72.06 5.05603 71.78 4.94603ZM73.21 3.99603C73.36 3.86603 73.44 3.67603 73.44 3.42603V1.75603C73.44 1.49603 73.36 1.30603 73.21 1.18603C73.06 1.05603 72.87 0.996029 72.65 0.996029C72.43 0.996029 72.24 1.05603 72.09 1.18603C71.94 1.31603 71.87 1.50603 71.87 1.75603V3.42603C71.87 3.68603 71.94 3.87603 72.09 3.99603C72.24 4.12603 72.43 4.18603 72.65 4.18603C72.87 4.18603 73.06 4.12603 73.21 3.99603Z" fill="#333333"/>
<path d="M75.41 0.156006H78.52V1.10601H76.5V2.18601H78.38V3.13601H76.5V5.02601H75.41V0.156006Z" fill="#333333"/>
<path d="M79.41 0.156006H82.52V1.10601H80.5V2.18601H82.38V3.13601H80.5V5.02601H79.41V0.156006Z" fill="#333333"/>
<path d="M83.41 0.156006H86.51V1.10601H84.49V2.09601H86.46V3.03601H84.49V4.07601H86.56V5.02601H83.41V0.156006Z" fill="#333333"/>
<path d="M87.4601 0.156006H90.5601V1.10601H88.5401V2.09601H90.5101V3.03601H88.5401V4.07601H90.6101V5.02601H87.4601V0.156006Z" fill="#333333"/>
</svg>
