<svg width="16" height="10" viewBox="0 0 16 10" fill="none" xmlns="http://www.w3.org/2000/svg">
<path d="M15.191 0.365777C14.7545 -0.0123262 14.0878 0.0211115 13.6962 0.445514L8.00009 6.62892L2.30398 0.445514C1.91242 0.0236837 1.24571 -0.0123262 0.809179 0.365777C0.375291 0.746453 0.338252 1.39463 0.727164 1.81903L7.172 8.81266C7.381 9.03901 7.66938 9.15476 7.9604 9.15476C7.97363 9.15476 7.98686 9.15219 8.00009 9.15219C8.01332 9.15219 8.02654 9.15476 8.03977 9.15476C8.3308 9.15476 8.61917 9.03901 8.82818 8.81266L15.273 1.81903C15.6619 1.39463 15.6249 0.746453 15.191 0.365777Z" fill="#333333" fill-opacity="0.7"/>
</svg>
