<svg width="42" height="41" viewBox="0 0 42 41" fill="none" xmlns="http://www.w3.org/2000/svg">
<path d="M22.1438 1.95407C32.3793 2.68237 40.0865 11.5704 39.3582 21.8059C38.6299 32.0415 29.7419 39.7487 19.5063 39.0204C9.27076 38.292 1.5636 29.4041 2.29191 19.1685C3.02022 8.93292 11.9082 1.22576 22.1438 1.95407Z" stroke="#333333"/>
<path d="M23.9874 11.3017C23.5874 11.2217 23.1374 11.1717 22.6574 11.1717C21.6274 11.1717 20.8074 11.3717 20.1774 11.7717C19.5474 12.1617 19.0874 12.7117 18.7974 13.4017C18.5074 14.0917 18.3674 14.8717 18.3674 15.7417V29.7817H21.3974V15.7017C21.3974 14.9717 21.5374 14.4217 21.8274 14.0817C22.1174 13.7317 22.5274 13.5617 23.0574 13.5617C23.5274 13.5617 24.0074 13.6617 24.4474 13.8617L25.0374 11.5817C24.7374 11.4717 24.3874 11.3817 23.9874 11.2917V11.3017ZM18.5274 17.0517H18.3674L16.6174 17.1917V19.4317H23.9474V17.0417H18.5274V17.0517Z" fill="#333333"/>
</svg>
