<svg width="16" height="10" viewBox="0 0 16 10" fill="none" xmlns="http://www.w3.org/2000/svg">
<path d="M15.191 8.98902C14.7545 9.36712 14.0878 9.33369 13.6962 8.90928L8.00009 2.72587L2.30398 8.90928C1.91242 9.33111 1.24571 9.36712 0.809179 8.98902C0.375291 8.60834 0.338252 7.96017 0.727164 7.53576L7.172 0.542134C7.381 0.315786 7.66938 0.20004 7.9604 0.20004C7.97363 0.20004 7.98686 0.202612 8.00009 0.202612C8.01332 0.202612 8.02654 0.20004 8.03977 0.20004C8.3308 0.20004 8.61917 0.315786 8.82818 0.542134L15.273 7.53576C15.6619 7.96017 15.6249 8.60834 15.191 8.98902Z" fill="#333333" fill-opacity="0.8"/>
</svg>
