<svg width="39" height="39" viewBox="0 0 39 39" fill="none" xmlns="http://www.w3.org/2000/svg">
<path d="M38.0611 19.4719C38.0611 29.7158 29.725 38.0519 19.4811 38.0519C9.23727 38.0519 0.901123 29.7158 0.901123 19.4719C0.901123 9.22838 9.23693 0.901901 19.4811 0.901901C29.7253 0.901901 38.0611 9.22838 38.0611 19.4719Z" stroke="#333333"/>
<path d="M26.6611 11.6519H12.2911C10.1511 11.6519 8.40112 13.4019 8.40112 15.5419V23.4319C8.40112 25.5719 10.1511 27.3119 12.2911 27.3119H26.6611C28.8011 27.3119 30.5511 25.5719 30.5511 23.4319V15.5419C30.5511 13.4019 28.8011 11.6519 26.6611 11.6519ZM17.3011 22.3019V16.6719L22.9311 19.4419L17.3011 22.3019Z" fill="#333333"/>
</svg>
