<svg width="38" height="38" viewBox="0 0 38 38" fill="none" xmlns="http://www.w3.org/2000/svg">
<path d="M36.9012 18.5917C36.9012 28.5656 28.785 36.6817 18.8112 36.6817C8.83697 36.6817 0.711182 28.5653 0.711182 18.5917C0.711182 8.61789 8.83732 0.491745 18.8112 0.491745C28.7847 0.491745 36.9012 8.61754 36.9012 18.5917Z" stroke="#333333"/>
<path d="M25.9312 7.76175H11.6912C9.64119 7.76175 7.97119 9.42175 7.97119 11.4717V25.7217C7.97119 27.7717 9.64119 29.4317 11.6912 29.4317H25.9412C27.9912 29.4317 29.6512 27.7717 29.6512 25.7217V11.4717C29.6512 9.42175 27.9912 7.76175 25.9412 7.76175H25.9312ZM28.3712 25.7217C28.3712 27.0717 27.2812 28.1617 25.9312 28.1617H11.6912C10.3412 28.1617 9.24119 27.0717 9.24119 25.7217V11.4717C9.24119 10.1217 10.3412 9.02175 11.6912 9.02175H25.9412C27.2912 9.02175 28.3812 10.1217 28.3812 11.4717V25.7217H28.3712Z" fill="#333333"/>
<path d="M18.8112 12.7217C15.5712 12.7217 12.9412 15.3617 12.9412 18.5917C12.9412 21.8217 15.5812 24.4517 18.8112 24.4517C22.0412 24.4517 24.6712 21.8217 24.6712 18.5917C24.6712 15.3617 22.0412 12.7217 18.8112 12.7217ZM18.8112 23.3517C16.1812 23.3517 14.0612 21.2117 14.0612 18.6017C14.0612 15.9917 16.1912 13.8517 18.8112 13.8517C21.4312 13.8517 23.5612 15.9817 23.5612 18.6017C23.5612 21.2217 21.4212 23.3517 18.8112 23.3517Z" fill="#333333"/>
<path d="M25.5511 13.0417C26.0427 13.0417 26.4411 12.6433 26.4411 12.1517C26.4411 11.6602 26.0427 11.2617 25.5511 11.2617C25.0596 11.2617 24.6611 11.6602 24.6611 12.1517C24.6611 12.6433 25.0596 13.0417 25.5511 13.0417Z" fill="#333333"/>
</svg>
