<svg width="41" height="40" viewBox="0 0 41 40" fill="none" xmlns="http://www.w3.org/2000/svg">
<path d="M39.608 21.53C40.3559 11.019 32.4413 1.89186 21.9303 1.14396C11.4193 0.396048 2.29212 8.31061 1.54421 18.8216C0.796301 29.3327 8.71087 38.4598 19.2219 39.2077C29.7329 39.9556 38.8601 32.0411 39.608 21.53Z" fill="#333333"/>
<path d="M23.7384 10.9904C23.3384 10.9104 22.8884 10.8604 22.4084 10.8604C21.3784 10.8604 20.5584 11.0604 19.9284 11.4604C19.2984 11.8504 18.8384 12.4004 18.5484 13.0904C18.2584 13.7804 18.1184 14.5604 18.1184 15.4304V29.4704H21.1484V15.3904C21.1484 14.6604 21.2884 14.1104 21.5784 13.7704C21.8684 13.4204 22.2784 13.2504 22.8084 13.2504C23.2784 13.2504 23.7584 13.3504 24.1984 13.5504L24.7884 11.2704C24.4884 11.1604 24.1384 11.0704 23.7384 10.9804V10.9904ZM18.2784 16.7404H18.1184L16.3684 16.8804V19.1204H23.6984V16.7304H18.2784V16.7404Z" fill="#F4F0E6"/>
</svg>
