<svg width="40" height="39" viewBox="0 0 40 39" fill="none" xmlns="http://www.w3.org/2000/svg">
<path d="M39.1222 19.1603C39.1222 29.6803 30.5622 38.2403 20.0422 38.2403C9.52217 38.2403 0.962173 29.6803 0.962173 19.1603C0.962173 8.64033 9.52217 0.090332 20.0422 0.090332C30.5622 0.090332 39.1222 8.64033 39.1222 19.1603Z" fill="#333333"/>
<path d="M27.2222 11.3403H12.8522C10.7122 11.3403 8.96217 13.0903 8.96217 15.2303V23.1203C8.96217 25.2603 10.7122 27.0003 12.8522 27.0003H27.2222C29.3622 27.0003 31.1122 25.2603 31.1122 23.1203V15.2303C31.1122 13.0903 29.3622 11.3403 27.2222 11.3403ZM17.8622 21.9903V16.3603L23.4922 19.1303L17.8622 21.9903Z" fill="#F4F0E6"/>
</svg>
