<svg width="38" height="38" viewBox="0 0 38 38" fill="none" xmlns="http://www.w3.org/2000/svg">
<path d="M37.19 19.2802C37.19 29.5302 28.85 37.8702 18.6 37.8702C8.35 37.8702 0 29.5302 0 19.2802C0 9.03018 8.35 0.680176 18.6 0.680176C28.85 0.680176 37.19 9.03018 37.19 19.2802Z" fill="#333333"/>
<path d="M25.72 8.4502H11.48C9.43 8.4502 7.76 10.1102 7.76 12.1602V26.4102C7.76 28.4602 9.43 30.1202 11.48 30.1202H25.73C27.78 30.1202 29.44 28.4602 29.44 26.4102V12.1602C29.44 10.1102 27.78 8.4502 25.73 8.4502H25.72ZM28.16 26.4102C28.16 27.7602 27.07 28.8502 25.72 28.8502H11.48C10.13 28.8502 9.03 27.7602 9.03 26.4102V12.1602C9.03 10.8102 10.13 9.7102 11.48 9.7102H25.73C27.08 9.7102 28.17 10.8102 28.17 12.1602V26.4102H28.16Z" fill="#F4F0E6"/>
<path d="M18.6 13.4102C15.36 13.4102 12.73 16.0502 12.73 19.2802C12.73 22.5102 15.37 25.1402 18.6 25.1402C21.83 25.1402 24.46 22.5102 24.46 19.2802C24.46 16.0502 21.83 13.4102 18.6 13.4102ZM18.6 24.0402C15.97 24.0402 13.85 21.9002 13.85 19.2902C13.85 16.6802 15.98 14.5402 18.6 14.5402C21.22 14.5402 23.35 16.6702 23.35 19.2902C23.35 21.9102 21.21 24.0402 18.6 24.0402Z" fill="#F4F0E6"/>
<path d="M25.34 13.7302C25.8315 13.7302 26.23 13.3317 26.23 12.8402C26.23 12.3487 25.8315 11.9502 25.34 11.9502C24.8485 11.9502 24.45 12.3487 24.45 12.8402C24.45 13.3317 24.8485 13.7302 25.34 13.7302Z" fill="#F4F0E6"/>
</svg>
