<svg width="182" height="52" viewBox="0 0 182 52" fill="none" xmlns="http://www.w3.org/2000/svg">
<g clip-path="url(#clip0_350_86)">
<path d="M27.2951 0C11.7751 0.01 0.825089 10.49 0.785089 25.87C0.745089 40.87 11.0851 51.45 26.6351 51.87C42.2651 52.3 53.5651 38.67 52.8751 26.8C53.7551 11.91 41.6351 0 27.2951 0ZM18.0851 45.29C20.8851 44.41 23.7851 44.72 26.6451 44.66C29.4751 44.61 32.2951 44.65 35.1251 44.65C29.6051 48.88 23.8551 48 18.0851 45.29ZM47.5451 33.09C46.4051 35.83 44.7551 38.45 42.8951 40.78C39.9451 44.47 35.8551 44.06 31.1151 43.29C32.2151 42.01 32.9451 41.17 33.6651 40.32C33.3151 39.63 32.6051 38.88 32.7151 38.3C33.0251 36.72 34.0251 35.56 35.6551 35.11C35.7051 35.09 35.7651 35.07 35.8151 35.06C35.7851 35.03 35.7551 35 35.7351 34.97C35.1451 34.37 34.6151 33.44 33.9651 33.35C29.4251 32.73 24.8851 32.79 19.9251 33.38C20.8751 36.94 21.6751 39.97 22.5451 43.26C20.2751 44.25 17.7851 43.7 15.4051 43.61C14.3051 43.57 13.0351 42.8 12.2151 41.99C8.90509 38.71 6.53509 35.06 5.49509 30.23C3.09509 19.06 9.76509 10.15 16.3451 6.93C24.1751 3.1 32.1951 2.44 41.0951 9.55C48.0851 15.13 50.6151 25.75 47.5451 33.09Z" fill="black"/>
<path d="M34.395 23.8C33.755 28.04 29.625 29.11 27.365 32.08C25.945 30.91 24.775 29.88 23.535 28.94C18.305 24.96 18.595 18.53 24.175 15.18C24.715 14.86 25.275 14.56 25.905 14.2C24.055 12.75 20.955 14.84 20.185 12.08C19.715 10.37 18.815 7.99 21.605 6.31V11.44C23.495 14.29 26.495 11.11 28.435 13.71C30.235 16.12 33.785 17.14 34.225 21.09C31.525 21.37 28.825 22.11 26.815 18.44C25.995 21.53 26.045 23.85 26.605 26.43C28.665 24.1433 31.2583 23.2733 34.385 23.82L34.395 23.8Z" fill="black"/>
<path d="M35.685 38.3C35.685 37.17 35.675 36.05 35.665 34.92C37.445 36.04 37.155 37.16 35.685 38.3Z" fill="black"/>
<path d="M68.445 18.5201H64.465V15.6201H75.925V18.5201H71.935V31.0501H68.455V18.5201H68.445Z" fill="black"/>
<path d="M79.145 15.61H82.595V21.66H87.395V15.61H90.845V31.04H87.395V24.65H82.595V31.04H79.145V15.61Z" fill="black"/>
<path d="M94.9449 15.61H104.765V18.62H98.3749V21.75H104.605V24.72H98.3749V28.03H104.935V31.04H94.9449V15.61Z" fill="black"/>
<path d="M118.325 30.75C117.405 30.37 116.665 29.77 116.095 28.96C115.525 28.15 115.245 27.12 115.245 25.89V20.77C115.245 19.54 115.525 18.52 116.095 17.7C116.665 16.88 117.405 16.29 118.325 15.91C119.245 15.53 120.235 15.34 121.315 15.34C122.945 15.34 124.245 15.61 125.225 16.15L124.875 19.02C123.985 18.6 122.915 18.39 121.675 18.39C120.835 18.39 120.125 18.62 119.555 19.07C118.985 19.52 118.705 20.15 118.705 20.94V25.74C118.705 26.54 118.985 27.16 119.555 27.61C120.125 28.06 120.835 28.29 121.675 28.29C122.265 28.29 122.815 28.23 123.345 28.1C123.875 27.97 124.455 27.76 125.085 27.47L125.435 30.36C125.025 30.66 124.435 30.91 123.665 31.08C122.895 31.26 122.115 31.34 121.315 31.34C120.235 31.34 119.235 31.15 118.325 30.77V30.75Z" fill="black"/>
<path d="M132.985 15.61H136.645L141.585 31.04H138.065L137.165 28.01H132.445L131.565 31.04H128.025L132.965 15.61H132.985ZM136.315 25.11L134.805 20.01L133.305 25.11H136.315Z" fill="black"/>
<path d="M144.715 15.61H154.565V18.62H148.165V22.05H154.115V25.06H148.165V31.04H144.715V15.61Z" fill="black"/>
<path d="M158.315 15.61H168.165V18.62H161.765V22.05H167.715V25.06H161.765V31.04H158.315V15.61Z" fill="black"/>
<path d="M171.925 15.61H181.745V18.62H175.355V21.75H181.585V24.72H175.355V28.03H181.915V31.04H171.925V15.61Z" fill="black"/>
<path d="M77.555 35.84H76.305V34.92H79.915V35.84H78.655V39.79H77.555V35.84Z" fill="black"/>
<path d="M80.645 34.92H81.735V36.83H83.255V34.92H84.345V39.79H83.255V37.77H81.735V39.79H80.645V34.92Z" fill="black"/>
<path d="M85.335 34.92H88.435V35.87H86.415V36.86H88.385V37.8H86.415V38.84H88.485V39.79H85.335V34.92Z" fill="black"/>
<path d="M91.825 39.75C91.545 39.66 91.295 39.54 91.065 39.39L91.235 38.44C91.415 38.57 91.635 38.68 91.895 38.78C92.155 38.87 92.395 38.92 92.635 38.92C92.825 38.92 92.975 38.88 93.095 38.8C93.215 38.72 93.275 38.6 93.275 38.44C93.275 38.3 93.215 38.18 93.095 38.08C92.975 37.98 92.785 37.89 92.525 37.79L92.275 37.7C91.865 37.55 91.565 37.36 91.375 37.12C91.185 36.89 91.085 36.59 91.085 36.22C91.085 35.94 91.155 35.7 91.285 35.49C91.415 35.28 91.605 35.13 91.855 35.02C92.095 34.91 92.385 34.85 92.705 34.85C92.945 34.85 93.185 34.88 93.425 34.94C93.655 35 93.875 35.09 94.075 35.21L93.935 36.11C93.565 35.91 93.175 35.81 92.785 35.81C92.605 35.81 92.465 35.85 92.345 35.92C92.235 35.99 92.175 36.11 92.175 36.26C92.175 36.36 92.205 36.44 92.255 36.51C92.315 36.58 92.385 36.63 92.485 36.68C92.585 36.73 92.715 36.79 92.895 36.86L93.145 36.95C93.545 37.1 93.845 37.29 94.055 37.52C94.265 37.75 94.365 38.06 94.365 38.45C94.365 38.74 94.295 39 94.145 39.22C94.005 39.44 93.805 39.6 93.545 39.72C93.285 39.84 93.005 39.89 92.685 39.89C92.385 39.89 92.105 39.85 91.825 39.76V39.75Z" fill="black"/>
<path d="M96.155 35.84H94.905V34.92H98.515V35.84H97.255V39.79H96.155V35.84Z" fill="black"/>
<path d="M100.005 39.71C99.725 39.6 99.485 39.42 99.295 39.16C99.105 38.9 99.015 38.58 99.015 38.18V36.52C99.015 36.12 99.105 35.79 99.295 35.54C99.485 35.29 99.715 35.1 99.995 34.99C100.275 34.88 100.575 34.82 100.875 34.82C101.175 34.82 101.465 34.88 101.745 34.99C102.025 35.1 102.265 35.28 102.455 35.54C102.645 35.79 102.735 36.12 102.735 36.52V38.18C102.735 38.58 102.645 38.91 102.455 39.16C102.265 39.41 102.035 39.6 101.745 39.71C101.465 39.82 101.175 39.88 100.875 39.88C100.575 39.88 100.285 39.82 100.005 39.71ZM101.435 38.76C101.585 38.63 101.665 38.44 101.665 38.19V36.52C101.665 36.26 101.585 36.07 101.435 35.95C101.285 35.82 101.095 35.76 100.875 35.76C100.655 35.76 100.465 35.82 100.315 35.95C100.165 36.08 100.095 36.27 100.095 36.52V38.19C100.095 38.45 100.165 38.64 100.315 38.76C100.465 38.89 100.655 38.95 100.875 38.95C101.095 38.95 101.285 38.89 101.435 38.76Z" fill="black"/>
<path d="M104.495 35.84H103.245V34.92H106.855V35.84H105.595V39.79H104.495V35.84Z" fill="black"/>
<path d="M108.845 38.17L107.275 34.92H108.445L109.385 37.08L110.305 34.92H111.485L109.915 38.22V39.79H108.835V38.17H108.845Z" fill="black"/>
<path d="M114.955 39.71C114.675 39.6 114.435 39.42 114.245 39.16C114.055 38.9 113.965 38.58 113.965 38.18V36.52C113.965 36.12 114.055 35.79 114.245 35.54C114.435 35.29 114.665 35.1 114.945 34.99C115.225 34.88 115.525 34.82 115.825 34.82C116.125 34.82 116.415 34.88 116.695 34.99C116.975 35.1 117.215 35.28 117.405 35.54C117.595 35.79 117.685 36.12 117.685 36.52V38.18C117.685 38.58 117.595 38.91 117.405 39.16C117.215 39.41 116.985 39.6 116.695 39.71C116.415 39.82 116.125 39.88 115.825 39.88C115.525 39.88 115.235 39.82 114.955 39.71ZM116.385 38.76C116.535 38.63 116.615 38.44 116.615 38.19V36.52C116.615 36.26 116.535 36.07 116.385 35.95C116.235 35.82 116.045 35.76 115.825 35.76C115.605 35.76 115.415 35.82 115.265 35.95C115.115 36.08 115.045 36.27 115.045 36.52V38.19C115.045 38.45 115.115 38.64 115.265 38.76C115.415 38.89 115.605 38.95 115.825 38.95C116.045 38.95 116.235 38.89 116.385 38.76Z" fill="black"/>
<path d="M118.575 34.92H121.685V35.87H119.665V36.95H121.545V37.9H119.665V39.79H118.575V34.92Z" fill="black"/>
<path d="M124.475 34.92H126.235C126.745 34.92 127.145 35.04 127.435 35.27C127.725 35.5 127.865 35.85 127.865 36.29V36.36C127.865 36.79 127.685 37.1 127.335 37.3C127.795 37.48 128.025 37.84 128.025 38.37V38.41C128.025 38.9 127.885 39.25 127.595 39.47C127.315 39.68 126.905 39.79 126.375 39.79H124.465V34.92H124.475ZM126.655 36.78C126.745 36.69 126.785 36.57 126.785 36.42V36.34C126.785 36.18 126.745 36.06 126.655 35.98C126.565 35.9 126.435 35.85 126.255 35.85H125.535V36.92H126.255C126.435 36.92 126.565 36.88 126.655 36.79V36.78ZM126.815 38.73C126.905 38.64 126.955 38.52 126.955 38.36V38.29C126.955 38.13 126.915 38 126.815 37.92C126.725 37.83 126.595 37.79 126.425 37.79H125.545V38.86H126.425C126.595 38.86 126.725 38.82 126.815 38.73Z" fill="black"/>
<path d="M128.835 34.92H131.935V35.87H129.915V36.86H131.885V37.8H129.915V38.84H131.985V39.79H128.835V34.92Z" fill="black"/>
<path d="M133.435 39.75C133.155 39.66 132.905 39.54 132.675 39.39L132.845 38.44C133.025 38.57 133.245 38.68 133.505 38.78C133.765 38.87 134.005 38.92 134.245 38.92C134.435 38.92 134.585 38.88 134.705 38.8C134.825 38.72 134.885 38.6 134.885 38.44C134.885 38.3 134.825 38.18 134.705 38.08C134.585 37.98 134.395 37.89 134.135 37.79L133.885 37.7C133.475 37.55 133.175 37.36 132.985 37.12C132.795 36.89 132.695 36.59 132.695 36.22C132.695 35.94 132.765 35.7 132.895 35.49C133.025 35.28 133.215 35.13 133.465 35.02C133.705 34.91 133.995 34.85 134.315 34.85C134.555 34.85 134.795 34.88 135.035 34.94C135.265 35 135.485 35.09 135.685 35.21L135.545 36.11C135.175 35.91 134.785 35.81 134.395 35.81C134.215 35.81 134.075 35.85 133.955 35.92C133.845 35.99 133.785 36.11 133.785 36.26C133.785 36.36 133.815 36.44 133.865 36.51C133.925 36.58 133.995 36.63 134.095 36.68C134.195 36.73 134.325 36.79 134.505 36.86L134.755 36.95C135.155 37.1 135.455 37.29 135.665 37.52C135.875 37.75 135.975 38.06 135.975 38.45C135.975 38.74 135.905 39 135.755 39.22C135.615 39.44 135.415 39.6 135.155 39.72C134.895 39.84 134.615 39.89 134.295 39.89C133.995 39.89 133.715 39.85 133.435 39.76V39.75Z" fill="black"/>
<path d="M137.765 35.84H136.515V34.92H140.125V35.84H138.865V39.79H137.765V35.84Z" fill="black"/>
<path d="M143.605 39.7C143.315 39.58 143.085 39.39 142.905 39.13C142.725 38.87 142.635 38.55 142.635 38.16V36.54C142.635 36.15 142.725 35.83 142.905 35.57C143.085 35.31 143.315 35.12 143.605 35C143.895 34.88 144.205 34.82 144.545 34.82C145.055 34.82 145.475 34.9 145.775 35.08L145.665 35.98C145.385 35.85 145.045 35.78 144.655 35.78C144.385 35.78 144.165 35.85 143.985 35.99C143.805 36.13 143.715 36.33 143.715 36.58V38.1C143.715 38.35 143.805 38.55 143.985 38.69C144.165 38.83 144.385 38.9 144.655 38.9C144.845 38.9 145.015 38.88 145.185 38.84C145.355 38.8 145.535 38.73 145.735 38.64L145.845 39.55C145.715 39.65 145.525 39.72 145.285 39.78C145.045 39.84 144.795 39.86 144.545 39.86C144.205 39.86 143.895 39.8 143.605 39.68V39.7Z" fill="black"/>
<path d="M147.555 39.71C147.275 39.6 147.035 39.42 146.845 39.16C146.655 38.9 146.565 38.58 146.565 38.18V36.52C146.565 36.12 146.655 35.79 146.845 35.54C147.035 35.29 147.265 35.1 147.545 34.99C147.825 34.88 148.125 34.82 148.425 34.82C148.725 34.82 149.015 34.88 149.295 34.99C149.575 35.1 149.815 35.28 150.005 35.54C150.195 35.79 150.285 36.12 150.285 36.52V38.18C150.285 38.58 150.195 38.91 150.005 39.16C149.815 39.41 149.585 39.6 149.295 39.71C149.015 39.82 148.725 39.88 148.425 39.88C148.125 39.88 147.835 39.82 147.555 39.71ZM148.985 38.76C149.135 38.63 149.215 38.44 149.215 38.19V36.52C149.215 36.26 149.135 36.07 148.985 35.95C148.835 35.82 148.645 35.76 148.425 35.76C148.205 35.76 148.015 35.82 147.865 35.95C147.715 36.08 147.645 36.27 147.645 36.52V38.19C147.645 38.45 147.715 38.64 147.865 38.76C148.015 38.89 148.205 38.95 148.425 38.95C148.645 38.95 148.835 38.89 148.985 38.76Z" fill="black"/>
<path d="M151.185 34.92H154.295V35.87H152.275V36.95H154.155V37.9H152.275V39.79H151.185V34.92Z" fill="black"/>
<path d="M155.185 34.92H158.295V35.87H156.275V36.95H158.155V37.9H156.275V39.79H155.185V34.92Z" fill="black"/>
<path d="M159.185 34.92H162.285V35.87H160.265V36.86H162.235V37.8H160.265V38.84H162.335V39.79H159.185V34.92Z" fill="black"/>
<path d="M163.235 34.92H166.335V35.87H164.315V36.86H166.285V37.8H164.315V38.84H166.385V39.79H163.235V34.92Z" fill="black"/>
</g>
<defs>
<clipPath id="clip0_350_86">
<rect width="181.13" height="51.88" fill="white" transform="translate(0.784973)"/>
</clipPath>
</defs>
</svg>
