<svg width="182" height="52" viewBox="0 0 182 52" fill="none" xmlns="http://www.w3.org/2000/svg">
<g clip-path="url(#clip0_357_81)">
<path d="M26.5101 0C10.9901 0.01 0.0401156 10.49 0.000115644 25.87C-0.0398844 40.87 10.3001 51.45 25.8501 51.87C41.4801 52.3 52.7801 38.67 52.0901 26.8C52.9701 11.91 40.8501 0 26.5101 0ZM17.3001 45.29C20.1001 44.41 23.0001 44.72 25.8601 44.66C28.6901 44.61 31.5101 44.65 34.3401 44.65C28.8201 48.88 23.0701 48 17.3001 45.29ZM46.7601 33.09C45.6201 35.83 43.9701 38.45 42.1101 40.78C39.1601 44.47 35.0701 44.06 30.3301 43.29C31.4301 42.01 32.1601 41.17 32.8801 40.32C32.5301 39.63 31.8201 38.88 31.9301 38.3C32.2401 36.72 33.2401 35.56 34.8701 35.11C34.9201 35.09 34.9801 35.07 35.0301 35.06C35.0001 35.03 34.9701 35 34.9501 34.97C34.3601 34.37 33.8301 33.44 33.1801 33.35C28.6401 32.73 24.1001 32.79 19.1401 33.38C20.0901 36.94 20.8901 39.97 21.7601 43.26C19.4901 44.25 17.0001 43.7 14.6201 43.61C13.5201 43.57 12.2501 42.8 11.4301 41.99C8.12012 38.71 5.75012 35.06 4.71012 30.23C2.31012 19.06 8.98012 10.15 15.5601 6.93C23.3901 3.1 31.4101 2.44 40.3101 9.55C47.3001 15.13 49.8301 25.75 46.7601 33.09Z" fill="white"/>
<path d="M33.61 23.8C32.97 28.04 28.84 29.11 26.58 32.08C25.16 30.91 23.99 29.88 22.75 28.94C17.52 24.96 17.81 18.53 23.39 15.18C23.93 14.86 24.49 14.56 25.12 14.2C23.27 12.75 20.17 14.84 19.4 12.08C18.93 10.37 18.03 7.99 20.82 6.31V11.44C22.71 14.29 25.71 11.11 27.65 13.71C29.45 16.12 33 17.14 33.44 21.09C30.74 21.37 28.04 22.11 26.03 18.44C25.21 21.53 25.26 23.85 25.82 26.43C27.88 24.1433 30.4733 23.2733 33.6 23.82L33.61 23.8Z" fill="white"/>
<path d="M34.9 38.3C34.9 37.17 34.89 36.05 34.88 34.92C36.66 36.04 36.37 37.16 34.9 38.3Z" fill="white"/>
<path d="M67.66 18.5201H63.68V15.6201H75.14V18.5201H71.15V31.0501H67.67V18.5201H67.66Z" fill="white"/>
<path d="M78.36 15.61H81.81V21.66H86.61V15.61H90.06V31.04H86.61V24.65H81.81V31.04H78.36V15.61Z" fill="white"/>
<path d="M94.16 15.61H103.98V18.62H97.59V21.75H103.82V24.72H97.59V28.03H104.15V31.04H94.16V15.61Z" fill="white"/>
<path d="M117.54 30.75C116.62 30.37 115.88 29.77 115.31 28.96C114.74 28.15 114.46 27.12 114.46 25.89V20.77C114.46 19.54 114.74 18.52 115.31 17.7C115.88 16.88 116.62 16.29 117.54 15.91C118.46 15.53 119.45 15.34 120.53 15.34C122.16 15.34 123.46 15.61 124.44 16.15L124.09 19.02C123.2 18.6 122.13 18.39 120.89 18.39C120.05 18.39 119.34 18.62 118.77 19.07C118.2 19.52 117.92 20.15 117.92 20.94V25.74C117.92 26.54 118.2 27.16 118.77 27.61C119.34 28.06 120.05 28.29 120.89 28.29C121.48 28.29 122.03 28.23 122.56 28.1C123.09 27.97 123.67 27.76 124.3 27.47L124.65 30.36C124.24 30.66 123.65 30.91 122.88 31.08C122.11 31.26 121.33 31.34 120.53 31.34C119.45 31.34 118.45 31.15 117.54 30.77V30.75Z" fill="white"/>
<path d="M132.2 15.61H135.86L140.8 31.04H137.28L136.38 28.01H131.66L130.78 31.04H127.24L132.18 15.61H132.2ZM135.53 25.11L134.02 20.01L132.52 25.11H135.53Z" fill="white"/>
<path d="M143.93 15.61H153.78V18.62H147.38V22.05H153.33V25.06H147.38V31.04H143.93V15.61Z" fill="white"/>
<path d="M157.53 15.61H167.38V18.62H160.98V22.05H166.93V25.06H160.98V31.04H157.53V15.61Z" fill="white"/>
<path d="M171.14 15.61H180.96V18.62H174.57V21.75H180.8V24.72H174.57V28.03H181.13V31.04H171.14V15.61Z" fill="white"/>
<path d="M76.77 35.84H75.52V34.92H79.13V35.84H77.87V39.79H76.77V35.84Z" fill="white"/>
<path d="M79.86 34.92H80.95V36.83H82.47V34.92H83.56V39.79H82.47V37.77H80.95V39.79H79.86V34.92Z" fill="white"/>
<path d="M84.55 34.92H87.65V35.87H85.63V36.86H87.6V37.8H85.63V38.84H87.7V39.79H84.55V34.92Z" fill="white"/>
<path d="M91.04 39.75C90.76 39.66 90.51 39.54 90.28 39.39L90.45 38.44C90.63 38.57 90.85 38.68 91.11 38.78C91.37 38.87 91.61 38.92 91.85 38.92C92.04 38.92 92.19 38.88 92.31 38.8C92.43 38.72 92.49 38.6 92.49 38.44C92.49 38.3 92.43 38.18 92.31 38.08C92.19 37.98 92 37.89 91.74 37.79L91.49 37.7C91.08 37.55 90.78 37.36 90.59 37.12C90.4 36.89 90.3 36.59 90.3 36.22C90.3 35.94 90.37 35.7 90.5 35.49C90.63 35.28 90.82 35.13 91.07 35.02C91.31 34.91 91.6 34.85 91.92 34.85C92.16 34.85 92.4 34.88 92.64 34.94C92.87 35 93.09 35.09 93.29 35.21L93.15 36.11C92.78 35.91 92.39 35.81 92 35.81C91.82 35.81 91.68 35.85 91.56 35.92C91.45 35.99 91.39 36.11 91.39 36.26C91.39 36.36 91.42 36.44 91.47 36.51C91.53 36.58 91.6 36.63 91.7 36.68C91.8 36.73 91.93 36.79 92.11 36.86L92.36 36.95C92.76 37.1 93.06 37.29 93.27 37.52C93.48 37.75 93.58 38.06 93.58 38.45C93.58 38.74 93.51 39 93.36 39.22C93.22 39.44 93.02 39.6 92.76 39.72C92.5 39.84 92.22 39.89 91.9 39.89C91.6 39.89 91.32 39.85 91.04 39.76V39.75Z" fill="white"/>
<path d="M95.37 35.84H94.12V34.92H97.73V35.84H96.47V39.79H95.37V35.84Z" fill="white"/>
<path d="M99.22 39.71C98.94 39.6 98.7 39.42 98.51 39.16C98.32 38.9 98.23 38.58 98.23 38.18V36.52C98.23 36.12 98.32 35.79 98.51 35.54C98.7 35.29 98.93 35.1 99.21 34.99C99.49 34.88 99.79 34.82 100.09 34.82C100.39 34.82 100.68 34.88 100.96 34.99C101.24 35.1 101.48 35.28 101.67 35.54C101.86 35.79 101.95 36.12 101.95 36.52V38.18C101.95 38.58 101.86 38.91 101.67 39.16C101.48 39.41 101.25 39.6 100.96 39.71C100.68 39.82 100.39 39.88 100.09 39.88C99.79 39.88 99.5 39.82 99.22 39.71ZM100.65 38.76C100.8 38.63 100.88 38.44 100.88 38.19V36.52C100.88 36.26 100.8 36.07 100.65 35.95C100.5 35.82 100.31 35.76 100.09 35.76C99.87 35.76 99.68 35.82 99.53 35.95C99.38 36.08 99.31 36.27 99.31 36.52V38.19C99.31 38.45 99.38 38.64 99.53 38.76C99.68 38.89 99.87 38.95 100.09 38.95C100.31 38.95 100.5 38.89 100.65 38.76Z" fill="white"/>
<path d="M103.71 35.84H102.46V34.92H106.07V35.84H104.81V39.79H103.71V35.84Z" fill="white"/>
<path d="M108.06 38.17L106.49 34.92H107.66L108.6 37.08L109.52 34.92H110.7L109.13 38.22V39.79H108.05V38.17H108.06Z" fill="white"/>
<path d="M114.17 39.71C113.89 39.6 113.65 39.42 113.46 39.16C113.27 38.9 113.18 38.58 113.18 38.18V36.52C113.18 36.12 113.27 35.79 113.46 35.54C113.65 35.29 113.88 35.1 114.16 34.99C114.44 34.88 114.74 34.82 115.04 34.82C115.34 34.82 115.63 34.88 115.91 34.99C116.19 35.1 116.43 35.28 116.62 35.54C116.81 35.79 116.9 36.12 116.9 36.52V38.18C116.9 38.58 116.81 38.91 116.62 39.16C116.43 39.41 116.2 39.6 115.91 39.71C115.63 39.82 115.34 39.88 115.04 39.88C114.74 39.88 114.45 39.82 114.17 39.71ZM115.6 38.76C115.75 38.63 115.83 38.44 115.83 38.19V36.52C115.83 36.26 115.75 36.07 115.6 35.95C115.45 35.82 115.26 35.76 115.04 35.76C114.82 35.76 114.63 35.82 114.48 35.95C114.33 36.08 114.26 36.27 114.26 36.52V38.19C114.26 38.45 114.33 38.64 114.48 38.76C114.63 38.89 114.82 38.95 115.04 38.95C115.26 38.95 115.45 38.89 115.6 38.76Z" fill="white"/>
<path d="M117.79 34.92H120.9V35.87H118.88V36.95H120.76V37.9H118.88V39.79H117.79V34.92Z" fill="white"/>
<path d="M123.69 34.92H125.45C125.96 34.92 126.36 35.04 126.65 35.27C126.94 35.5 127.08 35.85 127.08 36.29V36.36C127.08 36.79 126.9 37.1 126.55 37.3C127.01 37.48 127.24 37.84 127.24 38.37V38.41C127.24 38.9 127.1 39.25 126.81 39.47C126.53 39.68 126.12 39.79 125.59 39.79H123.68V34.92H123.69ZM125.87 36.78C125.96 36.69 126 36.57 126 36.42V36.34C126 36.18 125.96 36.06 125.87 35.98C125.78 35.9 125.65 35.85 125.47 35.85H124.75V36.92H125.47C125.65 36.92 125.78 36.88 125.87 36.79V36.78ZM126.03 38.73C126.12 38.64 126.17 38.52 126.17 38.36V38.29C126.17 38.13 126.13 38 126.03 37.92C125.94 37.83 125.81 37.79 125.64 37.79H124.76V38.86H125.64C125.81 38.86 125.94 38.82 126.03 38.73Z" fill="white"/>
<path d="M128.05 34.92H131.15V35.87H129.13V36.86H131.1V37.8H129.13V38.84H131.2V39.79H128.05V34.92Z" fill="white"/>
<path d="M132.65 39.75C132.37 39.66 132.12 39.54 131.89 39.39L132.06 38.44C132.24 38.57 132.46 38.68 132.72 38.78C132.98 38.87 133.22 38.92 133.46 38.92C133.65 38.92 133.8 38.88 133.92 38.8C134.04 38.72 134.1 38.6 134.1 38.44C134.1 38.3 134.04 38.18 133.92 38.08C133.8 37.98 133.61 37.89 133.35 37.79L133.1 37.7C132.69 37.55 132.39 37.36 132.2 37.12C132.01 36.89 131.91 36.59 131.91 36.22C131.91 35.94 131.98 35.7 132.11 35.49C132.24 35.28 132.43 35.13 132.68 35.02C132.92 34.91 133.21 34.85 133.53 34.85C133.77 34.85 134.01 34.88 134.25 34.94C134.48 35 134.7 35.09 134.9 35.21L134.76 36.11C134.39 35.91 134 35.81 133.61 35.81C133.43 35.81 133.29 35.85 133.17 35.92C133.06 35.99 133 36.11 133 36.26C133 36.36 133.03 36.44 133.08 36.51C133.14 36.58 133.21 36.63 133.31 36.68C133.41 36.73 133.54 36.79 133.72 36.86L133.97 36.95C134.37 37.1 134.67 37.29 134.88 37.52C135.09 37.75 135.19 38.06 135.19 38.45C135.19 38.74 135.12 39 134.97 39.22C134.83 39.44 134.63 39.6 134.37 39.72C134.11 39.84 133.83 39.89 133.51 39.89C133.21 39.89 132.93 39.85 132.65 39.76V39.75Z" fill="white"/>
<path d="M136.98 35.84H135.73V34.92H139.34V35.84H138.08V39.79H136.98V35.84Z" fill="white"/>
<path d="M142.82 39.7C142.53 39.58 142.3 39.39 142.12 39.13C141.94 38.87 141.85 38.55 141.85 38.16V36.54C141.85 36.15 141.94 35.83 142.12 35.57C142.3 35.31 142.53 35.12 142.82 35C143.11 34.88 143.42 34.82 143.76 34.82C144.27 34.82 144.69 34.9 144.99 35.08L144.88 35.98C144.6 35.85 144.26 35.78 143.87 35.78C143.6 35.78 143.38 35.85 143.2 35.99C143.02 36.13 142.93 36.33 142.93 36.58V38.1C142.93 38.35 143.02 38.55 143.2 38.69C143.38 38.83 143.6 38.9 143.87 38.9C144.06 38.9 144.23 38.88 144.4 38.84C144.57 38.8 144.75 38.73 144.95 38.64L145.06 39.55C144.93 39.65 144.74 39.72 144.5 39.78C144.26 39.84 144.01 39.86 143.76 39.86C143.42 39.86 143.11 39.8 142.82 39.68V39.7Z" fill="white"/>
<path d="M146.77 39.71C146.49 39.6 146.25 39.42 146.06 39.16C145.87 38.9 145.78 38.58 145.78 38.18V36.52C145.78 36.12 145.87 35.79 146.06 35.54C146.25 35.29 146.48 35.1 146.76 34.99C147.04 34.88 147.34 34.82 147.64 34.82C147.94 34.82 148.23 34.88 148.51 34.99C148.79 35.1 149.03 35.28 149.22 35.54C149.41 35.79 149.5 36.12 149.5 36.52V38.18C149.5 38.58 149.41 38.91 149.22 39.16C149.03 39.41 148.8 39.6 148.51 39.71C148.23 39.82 147.94 39.88 147.64 39.88C147.34 39.88 147.05 39.82 146.77 39.71ZM148.2 38.76C148.35 38.63 148.43 38.44 148.43 38.19V36.52C148.43 36.26 148.35 36.07 148.2 35.95C148.05 35.82 147.86 35.76 147.64 35.76C147.42 35.76 147.23 35.82 147.08 35.95C146.93 36.08 146.86 36.27 146.86 36.52V38.19C146.86 38.45 146.93 38.64 147.08 38.76C147.23 38.89 147.42 38.95 147.64 38.95C147.86 38.95 148.05 38.89 148.2 38.76Z" fill="white"/>
<path d="M150.4 34.92H153.51V35.87H151.49V36.95H153.37V37.9H151.49V39.79H150.4V34.92Z" fill="white"/>
<path d="M154.4 34.92H157.51V35.87H155.49V36.95H157.37V37.9H155.49V39.79H154.4V34.92Z" fill="white"/>
<path d="M158.4 34.92H161.5V35.87H159.48V36.86H161.45V37.8H159.48V38.84H161.55V39.79H158.4V34.92Z" fill="white"/>
<path d="M162.45 34.92H165.55V35.87H163.53V36.86H165.5V37.8H163.53V38.84H165.6V39.79H162.45V34.92Z" fill="white"/>
</g>
<defs>
<clipPath id="clip0_357_81">
<rect width="181.13" height="51.88" fill="white"/>
</clipPath>
</defs>
</svg>
