<svg width="119" height="26" viewBox="0 0 119 26" fill="none" xmlns="http://www.w3.org/2000/svg">
<path d="M4.67007 3.75608H0.690063V0.856079H12.1501V3.75608H8.16006V16.2861H4.68006V3.75608H4.67007Z" fill="#333333"/>
<path d="M15.3701 0.846069H18.8201V6.89607H23.6201V0.846069H27.0701V16.2761H23.6201V9.88607H18.8201V16.2761H15.3701V0.846069Z" fill="#333333"/>
<path d="M31.17 0.846069H40.99V3.85607H34.6V6.98607H40.83V9.95607H34.6V13.2661H41.16V16.2761H31.17V0.846069Z" fill="#333333"/>
<path d="M54.5501 15.986C53.6301 15.606 52.8901 15.006 52.3201 14.196C51.7501 13.386 51.4701 12.356 51.4701 11.126V6.00605C51.4701 4.77605 51.7501 3.75605 52.3201 2.93605C52.8901 2.11605 53.6301 1.52605 54.5501 1.14605C55.4701 0.76605 56.4601 0.57605 57.5401 0.57605C59.1701 0.57605 60.4701 0.846049 61.4501 1.38605L61.1001 4.25605C60.2101 3.83605 59.1401 3.62605 57.9001 3.62605C57.0601 3.62605 56.3501 3.85605 55.7801 4.30605C55.2101 4.75605 54.9301 5.38605 54.9301 6.17605V10.976C54.9301 11.776 55.2101 12.3961 55.7801 12.8461C56.3501 13.2961 57.0601 13.5261 57.9001 13.5261C58.4901 13.5261 59.0401 13.4661 59.5701 13.3361C60.1001 13.2061 60.6801 12.996 61.3101 12.706L61.6601 15.5961C61.2501 15.8961 60.6601 16.146 59.8901 16.316C59.1201 16.496 58.3401 16.576 57.5401 16.576C56.4601 16.576 55.4601 16.3861 54.5501 16.0061V15.986Z" fill="#333333"/>
<path d="M69.21 0.846069H72.87L77.81 16.2761H74.29L73.39 13.2461H68.67L67.79 16.2761H64.25L69.19 0.846069H69.21ZM72.54 10.3461L71.03 5.24607L69.53 10.3461H72.54Z" fill="#333333"/>
<path d="M80.9401 0.846069H90.7901V3.85607H84.3901V7.28607H90.3401V10.2961H84.3901V16.2761H80.9401V0.846069Z" fill="#333333"/>
<path d="M94.54 0.846069H104.39V3.85607H97.99V7.28607H103.94V10.2961H97.99V16.2761H94.54V0.846069Z" fill="#333333"/>
<path d="M108.15 0.846069H117.97V3.85607H111.58V6.98607H117.81V9.95607H111.58V13.2661H118.14V16.2761H108.15V0.846069Z" fill="#333333"/>
<path d="M13.78 21.076H12.53V20.156H16.14V21.076H14.88V25.026H13.78V21.076Z" fill="#333333"/>
<path d="M16.87 20.156H17.96V22.066H19.48V20.156H20.57V25.026H19.48V23.006H17.96V25.026H16.87V20.156Z" fill="#333333"/>
<path d="M21.5601 20.156H24.6601V21.106H22.6401V22.096H24.6101V23.036H22.6401V24.076H24.7101V25.026H21.5601V20.156Z" fill="#333333"/>
<path d="M28.05 24.9861C27.77 24.8961 27.52 24.7761 27.29 24.6261L27.46 23.6761C27.64 23.8061 27.86 23.9161 28.12 24.0161C28.38 24.1061 28.62 24.1561 28.86 24.1561C29.05 24.1561 29.2 24.1161 29.32 24.0361C29.44 23.9561 29.5 23.8361 29.5 23.6761C29.5 23.5361 29.44 23.4161 29.32 23.3161C29.2 23.2161 29.01 23.1261 28.75 23.0261L28.5 22.9361C28.09 22.7861 27.79 22.5961 27.6 22.3561C27.41 22.1261 27.31 21.8261 27.31 21.4561C27.31 21.1761 27.38 20.9361 27.51 20.7261C27.64 20.5161 27.83 20.3661 28.08 20.2561C28.32 20.1461 28.61 20.0861 28.93 20.0861C29.17 20.0861 29.41 20.1161 29.65 20.1761C29.88 20.2361 30.1 20.3261 30.3 20.4461L30.16 21.3461C29.79 21.1461 29.4 21.0461 29.01 21.0461C28.83 21.0461 28.69 21.0861 28.57 21.1561C28.46 21.2261 28.4 21.3461 28.4 21.4961C28.4 21.5961 28.43 21.6761 28.48 21.7461C28.54 21.8161 28.61 21.8661 28.71 21.9161C28.81 21.9661 28.94 22.0261 29.12 22.0961L29.37 22.1861C29.77 22.3361 30.07 22.5261 30.28 22.7561C30.49 22.9861 30.59 23.2961 30.59 23.6861C30.59 23.9761 30.52 24.2361 30.37 24.4561C30.23 24.6761 30.03 24.8361 29.77 24.9561C29.51 25.0761 29.23 25.1261 28.91 25.1261C28.61 25.1261 28.33 25.0861 28.05 24.9961V24.9861Z" fill="#333333"/>
<path d="M32.38 21.076H31.13V20.156H34.74V21.076H33.48V25.026H32.38V21.076Z" fill="#333333"/>
<path d="M36.23 24.946C35.95 24.836 35.71 24.656 35.52 24.396C35.33 24.136 35.24 23.816 35.24 23.416V21.756C35.24 21.356 35.33 21.026 35.52 20.776C35.71 20.526 35.94 20.336 36.22 20.226C36.5 20.116 36.8 20.056 37.1 20.056C37.4 20.056 37.69 20.116 37.97 20.226C38.25 20.336 38.49 20.516 38.68 20.776C38.87 21.026 38.96 21.356 38.96 21.756V23.416C38.96 23.816 38.87 24.146 38.68 24.396C38.49 24.646 38.26 24.836 37.97 24.946C37.69 25.056 37.4 25.116 37.1 25.116C36.8 25.116 36.51 25.056 36.23 24.946ZM37.66 23.996C37.81 23.866 37.89 23.676 37.89 23.426V21.756C37.89 21.496 37.81 21.306 37.66 21.186C37.51 21.056 37.32 20.996 37.1 20.996C36.88 20.996 36.69 21.056 36.54 21.186C36.39 21.316 36.32 21.506 36.32 21.756V23.426C36.32 23.686 36.39 23.876 36.54 23.996C36.69 24.126 36.88 24.186 37.1 24.186C37.32 24.186 37.51 24.126 37.66 23.996Z" fill="#333333"/>
<path d="M40.72 21.076H39.47V20.156H43.08V21.076H41.82V25.026H40.72V21.076Z" fill="#333333"/>
<path d="M45.07 23.406L43.5 20.156H44.67L45.61 22.316L46.53 20.156H47.71L46.14 23.456V25.026H45.06V23.406H45.07Z" fill="#333333"/>
<path d="M51.1801 24.946C50.9001 24.836 50.6601 24.656 50.4701 24.396C50.2801 24.136 50.1901 23.816 50.1901 23.416V21.756C50.1901 21.356 50.2801 21.026 50.4701 20.776C50.6601 20.526 50.8901 20.336 51.1701 20.226C51.4501 20.116 51.7501 20.056 52.0501 20.056C52.3501 20.056 52.6401 20.116 52.9201 20.226C53.2001 20.336 53.4401 20.516 53.6301 20.776C53.8201 21.026 53.9101 21.356 53.9101 21.756V23.416C53.9101 23.816 53.8201 24.146 53.6301 24.396C53.4401 24.646 53.2101 24.836 52.9201 24.946C52.6401 25.056 52.3501 25.116 52.0501 25.116C51.7501 25.116 51.4601 25.056 51.1801 24.946ZM52.6101 23.996C52.7601 23.866 52.8401 23.676 52.8401 23.426V21.756C52.8401 21.496 52.7601 21.306 52.6101 21.186C52.4601 21.056 52.2701 20.996 52.0501 20.996C51.8301 20.996 51.6401 21.056 51.4901 21.186C51.3401 21.316 51.2701 21.506 51.2701 21.756V23.426C51.2701 23.686 51.3401 23.876 51.4901 23.996C51.6401 24.126 51.8301 24.186 52.0501 24.186C52.2701 24.186 52.4601 24.126 52.6101 23.996Z" fill="#333333"/>
<path d="M54.8 20.156H57.91V21.106H55.89V22.186H57.7701V23.136H55.89V25.026H54.8V20.156Z" fill="#333333"/>
<path d="M60.7001 20.156H62.4601C62.9701 20.156 63.3701 20.276 63.6601 20.506C63.9501 20.736 64.0901 21.086 64.0901 21.526V21.596C64.0901 22.026 63.9101 22.336 63.5601 22.536C64.0201 22.716 64.2501 23.076 64.2501 23.606V23.646C64.2501 24.136 64.1101 24.486 63.8201 24.706C63.5401 24.916 63.1301 25.026 62.6001 25.026H60.6901V20.156H60.7001ZM62.8801 22.016C62.9701 21.926 63.0101 21.806 63.0101 21.656V21.576C63.0101 21.416 62.9701 21.296 62.8801 21.216C62.7901 21.136 62.6601 21.086 62.4801 21.086H61.7601V22.156H62.4801C62.6601 22.156 62.7901 22.116 62.8801 22.026V22.016ZM63.0401 23.966C63.1301 23.876 63.1801 23.756 63.1801 23.596V23.526C63.1801 23.366 63.1401 23.236 63.0401 23.156C62.9501 23.066 62.8201 23.026 62.6501 23.026H61.7701V24.096H62.6501C62.8201 24.096 62.9501 24.056 63.0401 23.966Z" fill="#333333"/>
<path d="M65.0601 20.156H68.16V21.106H66.1401V22.096H68.1101V23.036H66.1401V24.076H68.2101V25.026H65.0601V20.156Z" fill="#333333"/>
<path d="M69.66 24.9861C69.38 24.8961 69.13 24.7761 68.9 24.6261L69.07 23.6761C69.25 23.8061 69.47 23.9161 69.73 24.0161C69.99 24.1061 70.23 24.1561 70.47 24.1561C70.66 24.1561 70.81 24.1161 70.93 24.0361C71.05 23.9561 71.11 23.8361 71.11 23.6761C71.11 23.5361 71.05 23.4161 70.93 23.3161C70.81 23.2161 70.62 23.1261 70.36 23.0261L70.11 22.9361C69.7 22.7861 69.4 22.5961 69.21 22.3561C69.02 22.1261 68.92 21.8261 68.92 21.4561C68.92 21.1761 68.99 20.9361 69.12 20.7261C69.25 20.5161 69.44 20.3661 69.69 20.2561C69.93 20.1461 70.22 20.0861 70.54 20.0861C70.78 20.0861 71.02 20.1161 71.26 20.1761C71.49 20.2361 71.71 20.3261 71.91 20.4461L71.77 21.3461C71.4 21.1461 71.01 21.0461 70.62 21.0461C70.44 21.0461 70.3 21.0861 70.18 21.1561C70.07 21.2261 70.01 21.3461 70.01 21.4961C70.01 21.5961 70.04 21.6761 70.09 21.7461C70.15 21.8161 70.22 21.8661 70.32 21.9161C70.42 21.9661 70.55 22.0261 70.73 22.0961L70.98 22.1861C71.38 22.3361 71.68 22.5261 71.89 22.7561C72.1 22.9861 72.2 23.2961 72.2 23.6861C72.2 23.9761 72.13 24.2361 71.98 24.4561C71.84 24.6761 71.64 24.8361 71.38 24.9561C71.12 25.0761 70.84 25.1261 70.52 25.1261C70.22 25.1261 69.94 25.0861 69.66 24.9961V24.9861Z" fill="#333333"/>
<path d="M73.99 21.076H72.74V20.156H76.35V21.076H75.09V25.026H73.99V21.076Z" fill="#333333"/>
<path d="M79.83 24.936C79.54 24.816 79.31 24.626 79.13 24.366C78.95 24.106 78.86 23.786 78.86 23.396V21.776C78.86 21.386 78.95 21.066 79.13 20.806C79.31 20.546 79.54 20.356 79.83 20.236C80.12 20.116 80.43 20.056 80.77 20.056C81.28 20.056 81.7 20.136 82 20.316L81.89 21.216C81.61 21.086 81.27 21.016 80.88 21.016C80.61 21.016 80.39 21.086 80.21 21.226C80.03 21.366 79.94 21.566 79.94 21.816V23.336C79.94 23.586 80.03 23.786 80.21 23.926C80.39 24.066 80.61 24.136 80.88 24.136C81.07 24.136 81.24 24.116 81.41 24.076C81.58 24.036 81.76 23.966 81.96 23.876L82.07 24.786C81.94 24.886 81.75 24.956 81.51 25.016C81.27 25.076 81.02 25.096 80.77 25.096C80.43 25.096 80.12 25.036 79.83 24.916V24.936Z" fill="#333333"/>
<path d="M83.78 24.946C83.5 24.836 83.26 24.656 83.07 24.396C82.88 24.136 82.79 23.816 82.79 23.416V21.756C82.79 21.356 82.88 21.026 83.07 20.776C83.26 20.526 83.49 20.336 83.77 20.226C84.05 20.116 84.35 20.056 84.65 20.056C84.95 20.056 85.24 20.116 85.52 20.226C85.8 20.336 86.04 20.516 86.23 20.776C86.42 21.026 86.51 21.356 86.51 21.756V23.416C86.51 23.816 86.42 24.146 86.23 24.396C86.04 24.646 85.81 24.836 85.52 24.946C85.24 25.056 84.95 25.116 84.65 25.116C84.35 25.116 84.06 25.056 83.78 24.946ZM85.21 23.996C85.36 23.866 85.44 23.676 85.44 23.426V21.756C85.44 21.496 85.36 21.306 85.21 21.186C85.06 21.056 84.87 20.996 84.65 20.996C84.43 20.996 84.24 21.056 84.09 21.186C83.94 21.316 83.87 21.506 83.87 21.756V23.426C83.87 23.686 83.94 23.876 84.09 23.996C84.24 24.126 84.43 24.186 84.65 24.186C84.87 24.186 85.06 24.126 85.21 23.996Z" fill="#333333"/>
<path d="M87.41 20.156H90.52V21.106H88.5V22.186H90.38V23.136H88.5V25.026H87.41V20.156Z" fill="#333333"/>
<path d="M91.41 20.156H94.52V21.106H92.5V22.186H94.38V23.136H92.5V25.026H91.41V20.156Z" fill="#333333"/>
<path d="M95.41 20.156H98.51V21.106H96.49V22.096H98.46V23.036H96.49V24.076H98.56V25.026H95.41V20.156Z" fill="#333333"/>
<path d="M99.4601 20.156H102.56V21.106H100.54V22.096H102.51V23.036H100.54V24.076H102.61V25.026H99.4601V20.156Z" fill="#333333"/>
</svg>
